<svg width="293" height="1" viewBox="0 0 293 1" fill="none" xmlns="http://www.w3.org/2000/svg">
<path d="M292.388 0.318359H288.597" stroke="#06F0F6" stroke-width="0.602322" stroke-miterlimit="10"/>
<path d="M282.764 0.318359H279.006" stroke="#0EE9F6" stroke-width="0.602322" stroke-miterlimit="10"/>
<path d="M273.174 0.318359H269.383" stroke="#15E3F6" stroke-width="0.602322" stroke-miterlimit="10"/>
<path d="M263.551 0.318359H259.793" stroke="#1DDCF7" stroke-width="0.602322" stroke-miterlimit="10"/>
<path d="M253.961 0.318359H250.17" stroke="#25D5F7" stroke-width="0.602322" stroke-miterlimit="10"/>
<path d="M244.338 0.318359H240.579" stroke="#2CCFF7" stroke-width="0.602322" stroke-miterlimit="10"/>
<path d="M234.748 0.318359H230.989" stroke="#34C8F7" stroke-width="0.602322" stroke-miterlimit="10"/>
<path d="M225.157 0.318359H221.366" stroke="#3CC2F7" stroke-width="0.602322" stroke-miterlimit="10"/>
<path d="M215.534 0.318359H211.775" stroke="#43BBF8" stroke-width="0.602322" stroke-miterlimit="10"/>
<path d="M205.943 0.318359H202.152" stroke="#4BB4F8" stroke-width="0.602322" stroke-miterlimit="10"/>
<path d="M196.321 0.318359H192.562" stroke="#53AEF8" stroke-width="0.602322" stroke-miterlimit="10"/>
<path d="M186.73 0.318359H182.972" stroke="#5AA7F8" stroke-width="0.602322" stroke-miterlimit="10"/>
<path d="M177.139 0.318359H173.349" stroke="#62A0F8" stroke-width="0.602322" stroke-miterlimit="10"/>
<path d="M167.516 0.318359H163.758" stroke="#6A9AF9" stroke-width="0.602322" stroke-miterlimit="10"/>
<path d="M157.927 0.318359H154.136" stroke="#7193F9" stroke-width="0.602322" stroke-miterlimit="10"/>
<path d="M148.303 0.318359H144.545" stroke="#798CF9" stroke-width="0.602322" stroke-miterlimit="10"/>
<path d="M138.713 0.318359H134.922" stroke="#8186F9" stroke-width="0.602322" stroke-miterlimit="10"/>
<path d="M129.09 0.318359H125.331" stroke="#887FF9" stroke-width="0.602322" stroke-miterlimit="10"/>
<path d="M119.5 0.318359H115.741" stroke="#9079FA" stroke-width="0.602322" stroke-miterlimit="10"/>
<path d="M109.909 0.318359H106.118" stroke="#9872FA" stroke-width="0.602322" stroke-miterlimit="10"/>
<path d="M100.286 0.318359H96.5273" stroke="#9F6BFA" stroke-width="0.602322" stroke-miterlimit="10"/>
<path d="M90.6951 0.318359H86.9043" stroke="#A765FA" stroke-width="0.602322" stroke-miterlimit="10"/>
<path d="M81.0729 0.318359H77.3145" stroke="#AF5EFA" stroke-width="0.602322" stroke-miterlimit="10"/>
<path d="M71.4821 0.318359H67.7236" stroke="#B657FB" stroke-width="0.602322" stroke-miterlimit="10"/>
<path d="M61.859 0.318359H58.1006" stroke="#BE51FB" stroke-width="0.602322" stroke-miterlimit="10"/>
<path d="M52.2692 0.318359H48.5107" stroke="#C64AFB" stroke-width="0.602322" stroke-miterlimit="10"/>
<path d="M42.6785 0.318359H38.8877" stroke="#CD44FB" stroke-width="0.602322" stroke-miterlimit="10"/>
<path d="M33.0553 0.318359H29.2969" stroke="#D53DFB" stroke-width="0.602322" stroke-miterlimit="10"/>
<path d="M23.4647 0.318359H19.6738" stroke="#DD36FC" stroke-width="0.602322" stroke-miterlimit="10"/>
<path d="M13.8424 0.318359H10.084" stroke="#E430FC" stroke-width="0.602322" stroke-miterlimit="10"/>
<path d="M4.25159 0.318359H0.493164" stroke="#EC29FC" stroke-width="0.602322" stroke-miterlimit="10"/>
</svg>
